STARTFONT 2.1
COMMENT AUTOMATICALLY GENERATED FILE. DO NOT EDIT!
COMMENT Generated with 'ucs2any.pl 7x14B.bdf ../tryfont/KOI8-C.TXT KOI8-C'
COMMENT from an ISO10646-1 encoded source BDF font.
COMMENT ucs2any.pl by Markus Kuhn <mkuhn@acm.org>, 1999.
COMMENT "Id: 7x14B.bdf,v 1.19 1999-12-13 10:50:31+00 mgk25 Exp mgk25 $"
COMMENT "Send bug reports to Markus Kuhn <mkuhn@acm.org>"
COMMENT Changes 2000 by Serge Winitzki.
COMMENT $XFree86$
FONT -Misc-Fixed-Bold-R-Normal--14-130-75-75-C-70-KOI8-R
SIZE 7 75 75
FONTBOUNDINGBOX 7 14 0 -2
STARTPROPERTIES 22
FONTNAME_REGISTRY ""
FOUNDRY "Misc"
FAMILY_NAME "Fixed"
WEIGHT_NAME "Bold"
SLANT "R"
SETWIDTH_NAME "Normal"
ADD_STYLE_NAME ""
PIXEL_SIZE 14
POINT_SIZE 130
RESOLUTION_X 75
RESOLUTION_Y 75
SPACING "C"
AVERAGE_WIDTH 70
CHARSET_REGISTRY "KOI8"
CHARSET_ENCODING "R"
FONT_DESCENT 2
FONT_ASCENT 12
COPYRIGHT "Public domain font.  Share and enjoy."
CAP_HEIGHT 10
X_HEIGHT 7
_XMBDFED_INFO "Edited with xmbdfed 4.3."
_XFREE86_GLYPH_RANGES "0_126 149 152_154 156_158 163 179 191_255"
ENDPROPERTIES
CHARS 201
STARTCHAR char0
ENCODING 0
SWIDTH 960 0
DWIDTH 7 0
BBX 7 14 0 -2
BITMAP
00
00
82
00
00
00
00
00
00
00
00
82
00
00
ENDCHAR
STARTCHAR uni25C6
ENCODING 1
SWIDTH 960 0
DWIDTH 7 0
BBX 7 14 0 -2
BITMAP
00
00
30
30
78
78
FC
FC
78
78
30
30
00
00
ENDCHAR
STARTCHAR shade
ENCODING 2
SWIDTH 960 0
DWIDTH 7 0
BBX 7 14 0 -2
BITMAP
54
AA
54
AA
54
AA
54
AA
54
AA
54
AA
54
AA
ENDCHAR
STARTCHAR uni2409
ENCODING 3
SWIDTH 960 0
DWIDTH 7 0
BBX 7 14 0 -2
BITMAP
00
D8
D8
F8
D8
D8
00
7E
18
18
18
18
00
00
ENDCHAR
STARTCHAR uni240C
ENCODING 4
SWIDTH 960 0
DWIDTH 7 0
BBX 7 14 0 -2
BITMAP
00
F0
C0
C0
F0
C0
DE
D8
18
1E
18
18
00
00
ENDCHAR
STARTCHAR uni240D
ENCODING 5
SWIDTH 960 0
DWIDTH 7 0
BBX 7 14 0 -2
BITMAP
00
78
C0
C0
C0
78
00
3C
36
36
3C
36
36
00
ENDCHAR
STARTCHAR uni240A
ENCODING 6
SWIDTH 960 0
DWIDTH 7 0
BBX 7 14 0 -2
BITMAP
00
C0
C0
C0
C0
F8
00
3E
30
3C
30
30
00
00
ENDCHAR
STARTCHAR degree
ENCODING 7
SWIDTH 960 0
DWIDTH 7 0
BBX 7 14 0 -2
BITMAP
00
38
6C
6C
38
00
00
00
00
00
00
00
00
00
ENDCHAR
STARTCHAR plusminus
ENCODING 8
SWIDTH 960 0
DWIDTH 7 0
BBX 7 14 0 -2
BITMAP
00
00
00
00
00
00
30
30
FC
30
30
FC
00
00
ENDCHAR
STARTCHAR uni2424
ENCODING 9
SWIDTH 960 0
DWIDTH 7 0
BBX 7 14 0 -2
BITMAP
00
F0
D8
D8
D8
D8
00
18
18
18
18
1E
00
00
ENDCHAR
STARTCHAR uni240B
ENCODING 10
SWIDTH 960 0
DWIDTH 7 0
BBX 7 14 0 -2
BITMAP
00
CC
CC
CC
78
30
00
7E
18
18
18
18
00
00
ENDCHAR
STARTCHAR SF040000
ENCODING 11
SWIDTH 960 0
DWIDTH 7 0
BBX 7 14 0 -2
BITMAP
18
18
18
18
18
18
F8
F8
00
00
00
00
00
00
ENDCHAR
STARTCHAR SF030000
ENCODING 12
SWIDTH 960 0
DWIDTH 7 0
BBX 7 14 0 -2
BITMAP
00
00
00
00
00
00
F8
F8
18
18
18
18
18
18
ENDCHAR
STARTCHAR SF010000
ENCODING 13
SWIDTH 960 0
DWIDTH 7 0
BBX 7 14 0 -2
BITMAP
00
00
00
00
00
00
1E
1E
18
18
18
18
18
18
ENDCHAR
STARTCHAR SF020000
ENCODING 14
SWIDTH 960 0
DWIDTH 7 0
BBX 7 14 0 -2
BITMAP
18
18
18
18
18
18
1E
1E
00
00
00
00
00
00
ENDCHAR
STARTCHAR SF050000
ENCODING 15
SWIDTH 960 0
DWIDTH 7 0
BBX 7 14 0 -2
BITMAP
18
18
18
18
18
18
FE
FE
18
18
18
18
18
18
ENDCHAR
STARTCHAR char16
ENCODING 16
SWIDTH 960 0
DWIDTH 7 0
BBX 7 14 0 -2
BITMAP
00
00
FE
FE
00
00
00
00
00
00
00
00
00
00
ENDCHAR
STARTCHAR char17
ENCODING 17
SWIDTH 960 0
DWIDTH 7 0
BBX 7 14 0 -2
BITMAP
00
00
00
00
FE
FE
00
00
00
00
00
00
00
00
ENDCHAR
STARTCHAR char18
ENCODING 18
SWIDTH 960 0
DWIDTH 7 0
BBX 7 14 0 -2
BITMAP
00
00
00
00
00
00
FE
FE
00
00
00
00
00
00
ENDCHAR
STARTCHAR char19
ENCODING 19
SWIDTH 960 0
DWIDTH 7 0
BBX 7 14 0 -2
BITMAP
00
00
00
00
00
00
00
00
FE
FE
00
00
00
00
ENDCHAR
STARTCHAR char20
ENCODING 20
SWIDTH 960 0
DWIDTH 7 0
BBX 7 14 0 -2
BITMAP
00
00
00
00
00
00
00
00
00
00
FE
FE
00
00
ENDCHAR
STARTCHAR SF080000
ENCODING 21
SWIDTH 960 0
DWIDTH 7 0
BBX 7 14 0 -2
BITMAP
18
18
18
18
18
18
1E
1E
18
18
18
18
18
18
ENDCHAR
STARTCHAR SF090000
ENCODING 22
SWIDTH 960 0
DWIDTH 7 0
BBX 7 14 0 -2
BITMAP
18
18
18
18
18
18
F8
F8
18
18
18
18
18
18
ENDCHAR
STARTCHAR SF070000
ENCODING 23
SWIDTH 960 0
DWIDTH 7 0
BBX 7 14 0 -2
BITMAP
18
18
18
18
18
18
FE
FE
00
00
00
00
00
00
ENDCHAR
STARTCHAR SF060000
ENCODING 24
SWIDTH 960 0
DWIDTH 7 0
BBX 7 14 0 -2
BITMAP
00
00
00
00
00
00
FE
FE
18
18
18
18
18
18
ENDCHAR
STARTCHAR SF110000
ENCODING 25
SWIDTH 960 0
DWIDTH 7 0
BBX 7 14 0 -2
BITMAP
18
18
18
18
18
18
18
18
18
18
18
18
18
18
ENDCHAR
STARTCHAR lessequal
ENCODING 26
SWIDTH 960 0
DWIDTH 7 0
BBX 7 14 0 -2
BITMAP
00
00
00
00
00
1C
70
C0
70
1C
00
FC
00
00
ENDCHAR
STARTCHAR greaterequal
ENCODING 27
SWIDTH 960 0
DWIDTH 7 0
BBX 7 14 0 -2
BITMAP
00
00
00
00
00
E0
38
0C
38
E0
00
FC
00
00
ENDCHAR
STARTCHAR pi
ENCODING 28
SWIDTH 960 0
DWIDTH 7 0
BBX 7 14 0 -2
BITMAP
00
00
00
00
00
FE
6C
6C
6C
6C
6C
6C
00
00
ENDCHAR
STARTCHAR notequal
ENCODING 29
SWIDTH 960 0
DWIDTH 7 0
BBX 7 14 0 -2
BITMAP
00
00
00
00
00
08
18
FC
30
FC
60
40
00
00
ENDCHAR
STARTCHAR sterling
ENCODING 30
SWIDTH 960 0
DWIDTH 7 0
BBX 7 14 0 -2
BITMAP
00
00
00
38
6C
60
60
F0
60
60
F8
6C
00
00
ENDCHAR
STARTCHAR periodcentered
ENCODING 31
SWIDTH 960 0
DWIDTH 7 0
BBX 7 14 0 -2
BITMAP
00
00
00
00
00
30
30
00
00
00
00
00
00
00
ENDCHAR
STARTCHAR space
ENCODING 32
SWIDTH 960 0
DWIDTH 7 0
BBX 7 14 0 -2
BITMAP
00
00
00
00
00
00
00
00
00
00
00
00
00
00
ENDCHAR
STARTCHAR exclam
ENCODING 33
SWIDTH 960 0
DWIDTH 7 0
BBX 7 14 0 -2
BITMAP
00
00
30
30
30
30
30
30
30
00
30
30
00
00
ENDCHAR
STARTCHAR quotedbl
ENCODING 34
SWIDTH 960 0
DWIDTH 7 0
BBX 7 14 0 -2
BITMAP
00
6C
6C
6C
6C
00
00
00
00
00
00
00
00
00
ENDCHAR
STARTCHAR numbersign
ENCODING 35
SWIDTH 960 0
DWIDTH 7 0
BBX 7 14 0 -2
BITMAP
00
00
3C
3C
3C
FC
78
78
FC
F0
F0
F0
00
00
ENDCHAR
STARTCHAR dollar
ENCODING 36
SWIDTH 960 0
DWIDTH 7 0
BBX 7 14 0 -2
BITMAP
00
00
30
78
B4
B4
70
38
34
B4
B4
78
30
00
ENDCHAR
STARTCHAR percent
ENCODING 37
SWIDTH 960 0
DWIDTH 7 0
BBX 7 14 0 -2
BITMAP
00
00
6C
DC
D8
70
10
20
38
6C
EC
D8
00
00
ENDCHAR
STARTCHAR ampersand
ENCODING 38
SWIDTH 960 0
DWIDTH 7 0
BBX 7 14 0 -2
BITMAP
00
00
38
6C
6C
6C
38
6C
DC
D8
D8
6C
00
00
ENDCHAR
STARTCHAR quotesingle
ENCODING 39
SWIDTH 960 0
DWIDTH 7 0
BBX 7 14 0 -2
BITMAP
00
30
30
30
30
00
00
00
00
00
00
00
00
00
ENDCHAR
STARTCHAR parenleft
ENCODING 40
SWIDTH 960 0
DWIDTH 7 0
BBX 7 14 0 -2
BITMAP
00
0C
18
30
30
60
60
60
60
60
30
30
18
0C
ENDCHAR
STARTCHAR parenright
ENCODING 41
SWIDTH 960 0
DWIDTH 7 0
BBX 7 14 0 -2
BITMAP
00
60
30
18
18
0C
0C
0C
0C
0C
18
18
30
60
ENDCHAR
STARTCHAR asterisk
ENCODING 42
SWIDTH 960 0
DWIDTH 7 0
BBX 7 14 0 -2
BITMAP
00
00
30
B4
FC
30
FC
B4
30
00
00
00
00
00
ENDCHAR
STARTCHAR plus
ENCODING 43
SWIDTH 960 0
DWIDTH 7 0
BBX 7 14 0 -2
BITMAP
00
00
00
00
30
30
30
FC
30
30
30
00
00
00
ENDCHAR
STARTCHAR comma
ENCODING 44
SWIDTH 960 0
DWIDTH 7 0
BBX 7 14 0 -2
BITMAP
00
00
00
00
00
00
00
00
00
00
38
18
18
30
ENDCHAR
STARTCHAR hyphen
ENCODING 45
SWIDTH 960 0
DWIDTH 7 0
BBX 7 14 0 -2
BITMAP
00
00
00
00
00
00
00
FC
00
00
00
00
00
00
ENDCHAR
STARTCHAR period
ENCODING 46
SWIDTH 960 0
DWIDTH 7 0
BBX 7 14 0 -2
BITMAP
00
00
00
00
00
00
00
00
00
00
30
30
00
00
ENDCHAR
STARTCHAR slash
ENCODING 47
SWIDTH 960 0
DWIDTH 7 0
BBX 7 14 0 -2
BITMAP
00
0C
0C
0C
18
18
30
30
30
60
60
C0
C0
C0
ENDCHAR
STARTCHAR zero
ENCODING 48
SWIDTH 960 0
DWIDTH 7 0
BBX 7 14 0 -2
BITMAP
00
00
78
CC
CC
CC
CC
CC
CC
CC
CC
78
00
00
ENDCHAR
STARTCHAR one
ENCODING 49
SWIDTH 960 0
DWIDTH 7 0
BBX 7 14 0 -2
BITMAP
00
00
30
70
F0
30
30
30
30
30
30
FC
00
00
ENDCHAR
STARTCHAR two
ENCODING 50
SWIDTH 960 0
DWIDTH 7 0
BBX 7 14 0 -2
BITMAP
00
00
78
CC
CC
0C
18
18
30
60
C0
FC
00
00
ENDCHAR
STARTCHAR three
ENCODING 51
SWIDTH 960 0
DWIDTH 7 0
BBX 7 14 0 -2
BITMAP
00
00
78
CC
CC
0C
38
0C
0C
CC
CC
78
00
00
ENDCHAR
STARTCHAR four
ENCODING 52
SWIDTH 960 0
DWIDTH 7 0
BBX 7 14 0 -2
BITMAP
00
00
08
18
18
38
78
D8
D8
FC
18
18
00
00
ENDCHAR
STARTCHAR five
ENCODING 53
SWIDTH 960 0
DWIDTH 7 0
BBX 7 14 0 -2
BITMAP
00
00
FC
C0
C0
F8
CC
0C
0C
CC
CC
78
00
00
ENDCHAR
STARTCHAR six
ENCODING 54
SWIDTH 960 0
DWIDTH 7 0
BBX 7 14 0 -2
BITMAP
00
00
38
6C
CC
C0
F8
CC
CC
CC
CC
78
00
00
ENDCHAR
STARTCHAR seven
ENCODING 55
SWIDTH 960 0
DWIDTH 7 0
BBX 7 14 0 -2
BITMAP
00
00
FC
CC
D8
18
30
30
30
30
30
30
00
00
ENDCHAR
STARTCHAR eight
ENCODING 56
SWIDTH 960 0
DWIDTH 7 0
BBX 7 14 0 -2
BITMAP
00
00
78
CC
CC
CC
78
78
CC
CC
CC
78
00
00
ENDCHAR
STARTCHAR nine
ENCODING 57
SWIDTH 960 0
DWIDTH 7 0
BBX 7 14 0 -2
BITMAP
00
00
78
CC
CC
CC
CC
7C
0C
CC
D8
70
00
00
ENDCHAR
STARTCHAR colon
ENCODING 58
SWIDTH 960 0
DWIDTH 7 0
BBX 7 14 0 -2
BITMAP
00
00
00
00
30
30
00
00
00
30
30
00
00
00
ENDCHAR
STARTCHAR semicolon
ENCODING 59
SWIDTH 960 0
DWIDTH 7 0
BBX 7 14 0 -2
BITMAP
00
00
00
00
18
18
00
00
00
38
18
18
30
00
ENDCHAR
STARTCHAR less
ENCODING 60
SWIDTH 960 0
DWIDTH 7 0
BBX 7 14 0 -2
BITMAP
00
00
00
0C
18
30
60
C0
60
30
18
0C
00
00
ENDCHAR
STARTCHAR equal
ENCODING 61
SWIDTH 960 0
DWIDTH 7 0
BBX 7 14 0 -2
BITMAP
00
00
00
00
00
00
FC
00
00
FC
00
00
00
00
ENDCHAR
STARTCHAR greater
ENCODING 62
SWIDTH 960 0
DWIDTH 7 0
BBX 7 14 0 -2
BITMAP
00
00
00
C0
60
30
18
0C
18
30
60
C0
00
00
ENDCHAR
STARTCHAR question
ENCODING 63
SWIDTH 960 0
DWIDTH 7 0
BBX 7 14 0 -2
BITMAP
00
00
78
CC
CC
18
30
30
30
00
30
30
00
00
ENDCHAR
STARTCHAR at
ENCODING 64
SWIDTH 960 0
DWIDTH 7 0
BBX 7 14 0 -2
BITMAP
00
00
38
6C
DC
F4
F4
F4
F4
DC
60
3C
00
00
ENDCHAR
STARTCHAR A
ENCODING 65
SWIDTH 960 0
DWIDTH 7 0
BBX 7 14 0 -2
BITMAP
00
00
78
FC
CC
CC
CC
CC
FC
CC
CC
CC
00
00
ENDCHAR
STARTCHAR B
ENCODING 66
SWIDTH 960 0
DWIDTH 7 0
BBX 7 14 0 -2
BITMAP
00
00
F8
CC
CC
C8
F8
CC
CC
CC
CC
F8
00
00
ENDCHAR
STARTCHAR C
ENCODING 67
SWIDTH 960 0
DWIDTH 7 0
BBX 7 14 0 -2
BITMAP
00
00
78
CC
CC
C0
C0
C0
C0
CC
CC
78
00
00
ENDCHAR
STARTCHAR D
ENCODING 68
SWIDTH 960 0
DWIDTH 7 0
BBX 7 14 0 -2
BITMAP
00
00
F0
D8
CC
CC
CC
CC
CC
CC
D8
F0
00
00
ENDCHAR
STARTCHAR E
ENCODING 69
SWIDTH 960 0
DWIDTH 7 0
BBX 7 14 0 -2
BITMAP
00
00
FC
C0
C0
C0
F8
C0
C0
C0
C0
FC
00
00
ENDCHAR
STARTCHAR F
ENCODING 70
SWIDTH 960 0
DWIDTH 7 0
BBX 7 14 0 -2
BITMAP
00
00
FC
C0
C0
C0
F8
C0
C0
C0
C0
C0
00
00
ENDCHAR
STARTCHAR G
ENCODING 71
SWIDTH 960 0
DWIDTH 7 0
BBX 7 14 0 -2
BITMAP
00
00
78
CC
CC
C0
C0
DC
CC
CC
CC
78
00
00
ENDCHAR
STARTCHAR H
ENCODING 72
SWIDTH 960 0
DWIDTH 7 0
BBX 7 14 0 -2
BITMAP
00
00
CC
CC
CC
CC
FC
CC
CC
CC
CC
CC
00
00
ENDCHAR
STARTCHAR I
ENCODING 73
SWIDTH 960 0
DWIDTH 7 0
BBX 7 14 0 -2
BITMAP
00
00
FC
30
30
30
30
30
30
30
30
FC
00
00
ENDCHAR
STARTCHAR J
ENCODING 74
SWIDTH 960 0
DWIDTH 7 0
BBX 7 14 0 -2
BITMAP
00
00
0C
0C
0C
0C
0C
0C
0C
CC
D8
70
00
00
ENDCHAR
STARTCHAR K
ENCODING 75
SWIDTH 960 0
DWIDTH 7 0
BBX 7 14 0 -2
BITMAP
00
00
CC
D8
F0
E0
E0
F0
F0
D8
CC
CC
00
00
ENDCHAR
STARTCHAR L
ENCODING 76
SWIDTH 960 0
DWIDTH 7 0
BBX 7 14 0 -2
BITMAP
00
00
C0
C0
C0
C0
C0
C0
C0
C0
C0
FC
00
00
ENDCHAR
STARTCHAR M
ENCODING 77
SWIDTH 960 0
DWIDTH 7 0
BBX 7 14 0 -2
BITMAP
00
00
84
CC
CC
FC
FC
CC
CC
CC
CC
CC
00
00
ENDCHAR
STARTCHAR N
ENCODING 78
SWIDTH 960 0
DWIDTH 7 0
BBX 7 14 0 -2
BITMAP
00
00
CC
CC
EC
EC
EC
DC
DC
DC
CC
CC
00
00
ENDCHAR
STARTCHAR O
ENCODING 79
SWIDTH 960 0
DWIDTH 7 0
BBX 7 14 0 -2
BITMAP
00
00
78
CC
CC
CC
CC
CC
CC
CC
CC
78
00
00
ENDCHAR
STARTCHAR P
ENCODING 80
SWIDTH 960 0
DWIDTH 7 0
BBX 7 14 0 -2
BITMAP
00
00
F8
CC
CC
CC
CC
F8
C0
C0
C0
C0
00
00
ENDCHAR
STARTCHAR Q
ENCODING 81
SWIDTH 960 0
DWIDTH 7 0
BBX 7 14 0 -2
BITMAP
00
00
78
CC
CC
CC
CC
CC
EC
DC
CC
78
0C
04
ENDCHAR
STARTCHAR R
ENCODING 82
SWIDTH 960 0
DWIDTH 7 0
BBX 7 14 0 -2
BITMAP
00
00
F8
CC
CC
CC
F8
D8
CC
CC
CC
CC
00
00
ENDCHAR
STARTCHAR S
ENCODING 83
SWIDTH 960 0
DWIDTH 7 0
BBX 7 14 0 -2
BITMAP
00
00
78
CC
CC
60
30
30
18
CC
CC
78
00
00
ENDCHAR
STARTCHAR T
ENCODING 84
SWIDTH 960 0
DWIDTH 7 0
BBX 7 14 0 -2
BITMAP
00
00
FC
30
30
30
30
30
30
30
30
30
00
00
ENDCHAR
STARTCHAR U
ENCODING 85
SWIDTH 960 0
DWIDTH 7 0
BBX 7 14 0 -2
BITMAP
00
00
CC
CC
CC
CC
CC
CC
CC
CC
CC
78
00
00
ENDCHAR
STARTCHAR V
ENCODING 86
SWIDTH 960 0
DWIDTH 7 0
BBX 7 14 0 -2
BITMAP
00
00
CC
CC
CC
CC
CC
CC
CC
78
78
30
00
00
ENDCHAR
STARTCHAR W
ENCODING 87
SWIDTH 960 0
DWIDTH 7 0
BBX 7 14 0 -2
BITMAP
00
00
CC
CC
CC
CC
CC
FC
FC
FC
FC
48
00
00
ENDCHAR
STARTCHAR X
ENCODING 88
SWIDTH 960 0
DWIDTH 7 0
BBX 7 14 0 -2
BITMAP
00
00
CC
CC
78
78
30
30
78
78
CC
CC
00
00
ENDCHAR
STARTCHAR Y
ENCODING 89
SWIDTH 960 0
DWIDTH 7 0
BBX 7 14 0 -2
BITMAP
00
00
CC
CC
CC
78
78
30
30
30
30
30
00
00
ENDCHAR
STARTCHAR Z
ENCODING 90
SWIDTH 960 0
DWIDTH 7 0
BBX 7 14 0 -2
BITMAP
00
00
FC
0C
18
18
30
30
60
60
C0
FC
00
00
ENDCHAR
STARTCHAR bracketleft
ENCODING 91
SWIDTH 960 0
DWIDTH 7 0
BBX 7 14 0 -2
BITMAP
00
7C
60
60
60
60
60
60
60
60
60
60
60
7C
ENDCHAR
STARTCHAR backslash
ENCODING 92
SWIDTH 960 0
DWIDTH 7 0
BBX 7 14 0 -2
BITMAP
00
C0
C0
C0
60
60
30
30
30
18
18
0C
0C
0C
ENDCHAR
STARTCHAR bracketright
ENCODING 93
SWIDTH 960 0
DWIDTH 7 0
BBX 7 14 0 -2
BITMAP
00
7C
0C
0C
0C
0C
0C
0C
0C
0C
0C
0C
0C
7C
ENDCHAR
STARTCHAR asciicircum
ENCODING 94
SWIDTH 960 0
DWIDTH 7 0
BBX 7 14 0 -2
BITMAP
30
78
CC
00
00
00
00
00
00
00
00
00
00
00
ENDCHAR
STARTCHAR underscore
ENCODING 95
SWIDTH 960 0
DWIDTH 7 0
BBX 7 14 0 -2
BITMAP
00
00
00
00
00
00
00
00
00
00
00
00
FC
FC
ENDCHAR
STARTCHAR grave
ENCODING 96
SWIDTH 960 0
DWIDTH 7 0
BBX 7 14 0 -2
BITMAP
00
60
30
18
00
00
00
00
00
00
00
00
00
00
ENDCHAR
STARTCHAR a
ENCODING 97
SWIDTH 960 0
DWIDTH 7 0
BBX 7 14 0 -2
BITMAP
00
00
00
00
00
78
CC
1C
6C
CC
CC
7C
00
00
ENDCHAR
STARTCHAR b
ENCODING 98
SWIDTH 960 0
DWIDTH 7 0
BBX 7 14 0 -2
BITMAP
00
00
C0
C0
C0
F8
CC
CC
CC
CC
CC
F8
00
00
ENDCHAR
STARTCHAR c
ENCODING 99
SWIDTH 960 0
DWIDTH 7 0
BBX 7 14 0 -2
BITMAP
00
00
00
00
00
78
CC
C0
C0
C0
CC
78
00
00
ENDCHAR
STARTCHAR d
ENCODING 100
SWIDTH 960 0
DWIDTH 7 0
BBX 7 14 0 -2
BITMAP
00
00
0C
0C
0C
7C
CC
CC
CC
CC
CC
7C
00
00
ENDCHAR
STARTCHAR e
ENCODING 101
SWIDTH 960 0
DWIDTH 7 0
BBX 7 14 0 -2
BITMAP
00
00
00
00
00
78
CC
CC
FC
C0
CC
78
00
00
ENDCHAR
STARTCHAR f
ENCODING 102
SWIDTH 960 0
DWIDTH 7 0
BBX 7 14 0 -2
BITMAP
00
00
18
3C
30
30
FC
30
30
30
30
30
00
00
ENDCHAR
STARTCHAR g
ENCODING 103
SWIDTH 960 0
DWIDTH 7 0
BBX 7 14 0 -2
BITMAP
00
00
00
00
00
74
DC
D8
D8
70
40
F8
CC
78
ENDCHAR
STARTCHAR h
ENCODING 104
SWIDTH 960 0
DWIDTH 7 0
BBX 7 14 0 -2
BITMAP
00
00
C0
C0
C0
F8
CC
CC
CC
CC
CC
CC
00
00
ENDCHAR
STARTCHAR i
ENCODING 105
SWIDTH 960 0
DWIDTH 7 0
BBX 7 14 0 -2
BITMAP
00
00
30
30
00
30
30
30
30
30
30
30
00
00
ENDCHAR
STARTCHAR j
ENCODING 106
SWIDTH 960 0
DWIDTH 7 0
BBX 7 14 0 -2
BITMAP
00
00
0C
0C
00
0C
0C
0C
0C
0C
0C
0C
6C
38
ENDCHAR
STARTCHAR k
ENCODING 107
SWIDTH 960 0
DWIDTH 7 0
BBX 7 14 0 -2
BITMAP
00
00
C0
C0
C0
C8
D8
F0
F0
D8
CC
C4
00
00
ENDCHAR
STARTCHAR l
ENCODING 108
SWIDTH 960 0
DWIDTH 7 0
BBX 7 14 0 -2
BITMAP
00
00
30
30
30
30
30
30
30
30
30
30
00
00
ENDCHAR
STARTCHAR m
ENCODING 109
SWIDTH 960 0
DWIDTH 7 0
BBX 7 14 0 -2
BITMAP
00
00
00
00
00
D8
FC
FC
FC
FC
FC
CC
00
00
ENDCHAR
STARTCHAR n
ENCODING 110
SWIDTH 960 0
DWIDTH 7 0
BBX 7 14 0 -2
BITMAP
00
00
00
00
00
F8
CC
CC
CC
CC
CC
CC
00
00
ENDCHAR
STARTCHAR o
ENCODING 111
SWIDTH 960 0
DWIDTH 7 0
BBX 7 14 0 -2
BITMAP
00
00
00
00
00
78
CC
CC
CC
CC
CC
78
00
00
ENDCHAR
STARTCHAR p
ENCODING 112
SWIDTH 960 0
DWIDTH 7 0
BBX 7 14 0 -2
BITMAP
00
00
00
00
00
F8
CC
CC
CC
CC
CC
F8
C0
C0
ENDCHAR
STARTCHAR q
ENCODING 113
SWIDTH 960 0
DWIDTH 7 0
BBX 7 14 0 -2
BITMAP
00
00
00
00
00
7C
CC
CC
CC
CC
CC
7C
0C
0C
ENDCHAR
STARTCHAR r
ENCODING 114
SWIDTH 960 0
DWIDTH 7 0
BBX 7 14 0 -2
BITMAP
00
00
00
00
00
F8
CC
CC
C0
C0
C0
C0
00
00
ENDCHAR
STARTCHAR s
ENCODING 115
SWIDTH 960 0
DWIDTH 7 0
BBX 7 14 0 -2
BITMAP
00
00
00
00
00
78
CC
60
30
18
CC
78
00
00
ENDCHAR
STARTCHAR t
ENCODING 116
SWIDTH 960 0
DWIDTH 7 0
BBX 7 14 0 -2
BITMAP
00
00
30
30
30
FC
30
30
30
30
30
1C
00
00
ENDCHAR
STARTCHAR u
ENCODING 117
SWIDTH 960 0
DWIDTH 7 0
BBX 7 14 0 -2
BITMAP
00
00
00
00
00
CC
CC
CC
CC
CC
CC
7C
00
00
ENDCHAR
STARTCHAR v
ENCODING 118
SWIDTH 960 0
DWIDTH 7 0
BBX 7 14 0 -2
BITMAP
00
00
00
00
00
CC
CC
CC
78
78
30
30
00
00
ENDCHAR
STARTCHAR w
ENCODING 119
SWIDTH 960 0
DWIDTH 7 0
BBX 7 14 0 -2
BITMAP
00
00
00
00
00
CC
CC
FC
FC
FC
FC
48
00
00
ENDCHAR
STARTCHAR x
ENCODING 120
SWIDTH 960 0
DWIDTH 7 0
BBX 7 14 0 -2
BITMAP
00
00
00
00
00
CC
CC
78
30
78
CC
CC
00
00
ENDCHAR
STARTCHAR y
ENCODING 121
SWIDTH 960 0
DWIDTH 7 0
BBX 7 14 0 -2
BITMAP
00
00
00
00
00
CC
CC
6C
6C
38
38
18
D8
70
ENDCHAR
STARTCHAR z
ENCODING 122
SWIDTH 960 0
DWIDTH 7 0
BBX 7 14 0 -2
BITMAP
00
00
00
00
00
FC
0C
18
30
60
C0
FC
00
00
ENDCHAR
STARTCHAR braceleft
ENCODING 123
SWIDTH 960 0
DWIDTH 7 0
BBX 7 14 0 -2
BITMAP
00
1C
30
30
30
30
30
60
30
30
30
30
30
1C
ENDCHAR
STARTCHAR bar
ENCODING 124
SWIDTH 960 0
DWIDTH 7 0
BBX 7 14 0 -2
BITMAP
00
30
30
30
30
30
30
30
30
30
30
30
30
30
ENDCHAR
STARTCHAR braceright
ENCODING 125
SWIDTH 960 0
DWIDTH 7 0
BBX 7 14 0 -2
BITMAP
00
70
18
18
18
18
18
0C
18
18
18
18
18
70
ENDCHAR
STARTCHAR asciitilde
ENCODING 126
SWIDTH 960 0
DWIDTH 7 0
BBX 7 14 0 -2
BITMAP
00
44
F4
BC
88
00
00
00
00
00
00
00
00
00
ENDCHAR
STARTCHAR bullet
ENCODING 149
SWIDTH 960 0
DWIDTH 7 0
BBX 7 14 0 -2
BITMAP
00
00
00
00
00
00
38
7C
7C
7C
38
00
00
00
ENDCHAR
STARTCHAR lessequal
ENCODING 152
SWIDTH 960 0
DWIDTH 7 0
BBX 7 14 0 -2
BITMAP
00
00
00
00
00
1C
70
C0
70
1C
00
FC
00
00
ENDCHAR
STARTCHAR greaterequal
ENCODING 153
SWIDTH 960 0
DWIDTH 7 0
BBX 7 14 0 -2
BITMAP
00
00
00
00
00
E0
38
0C
38
E0
00
FC
00
00
ENDCHAR
STARTCHAR space
ENCODING 154
SWIDTH 960 0
DWIDTH 7 0
BBX 7 14 0 -2
BITMAP
00
00
00
00
00
00
00
00
00
00
00
00
00
00
ENDCHAR
STARTCHAR degree
ENCODING 156
SWIDTH 960 0
DWIDTH 7 0
BBX 7 14 0 -2
BITMAP
00
38
6C
6C
38
00
00
00
00
00
00
00
00
00
ENDCHAR
STARTCHAR twosuperior
ENCODING 157
SWIDTH 960 0
DWIDTH 7 0
BBX 7 14 0 -2
BITMAP
00
38
6C
0C
18
30
60
7C
00
00
00
00
00
00
ENDCHAR
STARTCHAR periodcentered
ENCODING 158
SWIDTH 960 0
DWIDTH 7 0
BBX 7 14 0 -2
BITMAP
00
00
00
00
00
30
30
00
00
00
00
00
00
00
ENDCHAR
STARTCHAR afii10071
ENCODING 163
SWIDTH 960 0
DWIDTH 7 0
BBX 7 14 0 -2
BITMAP
00
00
CC
CC
00
78
CC
CC
FC
C0
CC
78
00
00
ENDCHAR
STARTCHAR afii10023
ENCODING 179
SWIDTH 960 0
DWIDTH 7 0
BBX 7 14 0 -2
BITMAP
CC
00
FC
C0
C0
C0
F8
C0
C0
C0
C0
FC
00
00
ENDCHAR
STARTCHAR copyright
ENCODING 191
SWIDTH 960 0
DWIDTH 7 0
BBX 7 14 0 -2
BITMAP
00
78
CC
FC
EC
EC
EC
EC
EC
FC
CC
78
00
00
ENDCHAR
STARTCHAR afii10096
ENCODING 192
SWIDTH 960 0
DWIDTH 7 0
BBX 7 14 0 -2
BITMAP
00
00
00
00
00
CC
D6
F6
F6
F6
D6
CC
00
00
ENDCHAR
STARTCHAR afii10065
ENCODING 193
SWIDTH 960 0
DWIDTH 7 0
BBX 7 14 0 -2
BITMAP
00
00
00
00
00
78
CC
1C
6C
CC
CC
7C
00
00
ENDCHAR
STARTCHAR afii10066
ENCODING 194
SWIDTH 960 0
DWIDTH 7 0
BBX 7 14 0 -2
BITMAP
00
04
7C
F8
C0
F8
CC
CC
CC
CC
CC
78
00
00
ENDCHAR
STARTCHAR afii10088
ENCODING 195
SWIDTH 960 0
DWIDTH 7 0
BBX 7 14 0 -2
BITMAP
00
00
00
00
00
CC
CC
CC
CC
CC
CC
FE
06
06
ENDCHAR
STARTCHAR afii10069
ENCODING 196
SWIDTH 960 0
DWIDTH 7 0
BBX 7 14 0 -2
BITMAP
00
00
00
00
00
1C
3C
6C
6C
6C
6C
FE
C6
00
ENDCHAR
STARTCHAR afii10070
ENCODING 197
SWIDTH 960 0
DWIDTH 7 0
BBX 7 14 0 -2
BITMAP
00
00
00
00
00
78
CC
CC
FC
C0
CC
78
00
00
ENDCHAR
STARTCHAR afii10086
ENCODING 198
SWIDTH 960 0
DWIDTH 7 0
BBX 7 14 0 -2
BITMAP
00
00
00
10
10
7C
D6
D6
D6
D6
D6
7C
10
10
ENDCHAR
STARTCHAR afii10068
ENCODING 199
SWIDTH 960 0
DWIDTH 7 0
BBX 7 14 0 -2
BITMAP
00
00
00
00
00
7C
60
60
60
60
60
60
00
00
ENDCHAR
STARTCHAR afii10087
ENCODING 200
SWIDTH 960 0
DWIDTH 7 0
BBX 7 14 0 -2
BITMAP
00
00
00
00
00
CC
CC
78
30
78
CC
CC
00
00
ENDCHAR
STARTCHAR afii10074
ENCODING 201
SWIDTH 960 0
DWIDTH 7 0
BBX 7 14 0 -2
BITMAP
00
00
00
00
00
CC
CC
DC
EC
CC
CC
CC
00
00
ENDCHAR
STARTCHAR afii10075
ENCODING 202
SWIDTH 960 0
DWIDTH 7 0
BBX 7 14 0 -2
BITMAP
00
00
78
30
00
CC
CC
DC
EC
CC
CC
CC
00
00
ENDCHAR
STARTCHAR afii10076
ENCODING 203
SWIDTH 960 0
DWIDTH 7 0
BBX 7 14 0 -2
BITMAP
00
00
00
00
00
CC
D8
F0
E0
F0
D8
CC
00
00
ENDCHAR
STARTCHAR afii10077
ENCODING 204
SWIDTH 960 0
DWIDTH 7 0
BBX 7 14 0 -2
BITMAP
00
00
00
00
00
3E
36
36
36
36
B6
76
00
00
ENDCHAR
STARTCHAR afii10078
ENCODING 205
SWIDTH 960 0
DWIDTH 7 0
BBX 7 14 0 -2
BITMAP
00
00
00
00
00
84
CC
FC
FC
CC
CC
CC
00
00
ENDCHAR
STARTCHAR afii10079
ENCODING 206
SWIDTH 960 0
DWIDTH 7 0
BBX 7 14 0 -2
BITMAP
00
00
00
00
00
CC
CC
CC
FC
CC
CC
CC
00
00
ENDCHAR
STARTCHAR afii10080
ENCODING 207
SWIDTH 960 0
DWIDTH 7 0
BBX 7 14 0 -2
BITMAP
00
00
00
00
00
78
CC
CC
CC
CC
CC
78
00
00
ENDCHAR
STARTCHAR afii10081
ENCODING 208
SWIDTH 960 0
DWIDTH 7 0
BBX 7 14 0 -2
BITMAP
00
00
00
00
00
FC
CC
CC
CC
CC
CC
CC
00
00
ENDCHAR
STARTCHAR afii10097
ENCODING 209
SWIDTH 960 0
DWIDTH 7 0
BBX 7 14 0 -2
BITMAP
00
00
00
00
00
7C
CC
CC
7C
6C
CC
CC
00
00
ENDCHAR
STARTCHAR afii10082
ENCODING 210
SWIDTH 960 0
DWIDTH 7 0
BBX 7 14 0 -2
BITMAP
00
00
00
00
00
F8
CC
CC
CC
CC
CC
F8
C0
C0
ENDCHAR
STARTCHAR afii10083
ENCODING 211
SWIDTH 960 0
DWIDTH 7 0
BBX 7 14 0 -2
BITMAP
00
00
00
00
00
78
CC
C0
C0
C0
CC
78
00
00
ENDCHAR
STARTCHAR afii10084
ENCODING 212
SWIDTH 960 0
DWIDTH 7 0
BBX 7 14 0 -2
BITMAP
00
00
00
00
00
FC
30
30
30
30
30
30
00
00
ENDCHAR
STARTCHAR afii10085
ENCODING 213
SWIDTH 960 0
DWIDTH 7 0
BBX 7 14 0 -2
BITMAP
00
00
00
00
00
CC
CC
CC
CC
CC
7C
0C
CC
78
ENDCHAR
STARTCHAR afii10072
ENCODING 214
SWIDTH 960 0
DWIDTH 7 0
BBX 7 14 0 -2
BITMAP
00
00
00
00
00
D6
D6
54
38
54
D6
D6
00
00
ENDCHAR
STARTCHAR afii10067
ENCODING 215
SWIDTH 960 0
DWIDTH 7 0
BBX 7 14 0 -2
BITMAP
00
00
00
00
00
F8
CC
CC
F8
CC
CC
F8
00
00
ENDCHAR
STARTCHAR afii10094
ENCODING 216
SWIDTH 960 0
DWIDTH 7 0
BBX 7 14 0 -2
BITMAP
00
00
00
00
00
60
60
60
7C
66
66
7C
00
00
ENDCHAR
STARTCHAR afii10093
ENCODING 217
SWIDTH 960 0
DWIDTH 7 0
BBX 7 14 0 -2
BITMAP
00
00
00
00
00
C6
C6
C6
F6
DE
DE
F6
00
00
ENDCHAR
STARTCHAR afii10073
ENCODING 218
SWIDTH 960 0
DWIDTH 7 0
BBX 7 14 0 -2
BITMAP
00
00
00
00
00
78
CC
0C
18
0C
CC
78
00
00
ENDCHAR
STARTCHAR afii10090
ENCODING 219
SWIDTH 960 0
DWIDTH 7 0
BBX 7 14 0 -2
BITMAP
00
00
00
00
00
D6
D6
D6
D6
D6
D6
FE
00
00
ENDCHAR
STARTCHAR afii10095
ENCODING 220
SWIDTH 960 0
DWIDTH 7 0
BBX 7 14 0 -2
BITMAP
00
00
00
00
00
78
CC
0C
3C
0C
CC
78
00
00
ENDCHAR
STARTCHAR afii10091
ENCODING 221
SWIDTH 960 0
DWIDTH 7 0
BBX 7 14 0 -2
BITMAP
00
00
00
00
00
D6
D6
D6
D6
D6
D6
FE
06
06
ENDCHAR
STARTCHAR afii10089
ENCODING 222
SWIDTH 960 0
DWIDTH 7 0
BBX 7 14 0 -2
BITMAP
00
00
00
00
00
CC
CC
CC
7C
0C
0C
0C
00
00
ENDCHAR
STARTCHAR afii10092
ENCODING 223
SWIDTH 960 0
DWIDTH 7 0
BBX 7 14 0 -2
BITMAP
00
00
00
00
00
F0
30
30
3C
36
36
3C
00
00
ENDCHAR
STARTCHAR afii10048
ENCODING 224
SWIDTH 960 0
DWIDTH 7 0
BBX 7 14 0 -2
BITMAP
00
00
CC
D6
F6
F6
F6
F6
F6
F6
D6
CC
00
00
ENDCHAR
STARTCHAR afii10017
ENCODING 225
SWIDTH 960 0
DWIDTH 7 0
BBX 7 14 0 -2
BITMAP
00
00
30
78
CC
CC
CC
FC
CC
CC
CC
CC
00
00
ENDCHAR
STARTCHAR afii10018
ENCODING 226
SWIDTH 960 0
DWIDTH 7 0
BBX 7 14 0 -2
BITMAP
00
00
F8
C0
C0
C0
F8
CC
CC
CC
CC
F8
00
00
ENDCHAR
STARTCHAR afii10040
ENCODING 227
SWIDTH 960 0
DWIDTH 7 0
BBX 7 14 0 -2
BITMAP
00
00
CC
CC
CC
CC
CC
CC
CC
CC
CC
FE
06
06
ENDCHAR
STARTCHAR afii10021
ENCODING 228
SWIDTH 960 0
DWIDTH 7 0
BBX 7 14 0 -2
BITMAP
00
00
1C
3C
6C
6C
6C
6C
6C
6C
6C
FE
C6
00
ENDCHAR
STARTCHAR afii10022
ENCODING 229
SWIDTH 960 0
DWIDTH 7 0
BBX 7 14 0 -2
BITMAP
00
00
FC
C0
C0
C0
F0
C0
C0
C0
C0
FC
00
00
ENDCHAR
STARTCHAR afii10038
ENCODING 230
SWIDTH 960 0
DWIDTH 7 0
BBX 7 14 0 -2
BITMAP
00
00
10
7C
D6
D6
D6
D6
D6
D6
7C
10
00
00
ENDCHAR
STARTCHAR afii10020
ENCODING 231
SWIDTH 960 0
DWIDTH 7 0
BBX 7 14 0 -2
BITMAP
00
00
FC
C0
C0
C0
C0
C0
C0
C0
C0
C0
00
00
ENDCHAR
STARTCHAR afii10039
ENCODING 232
SWIDTH 960 0
DWIDTH 7 0
BBX 7 14 0 -2
BITMAP
00
00
CC
CC
78
78
30
30
78
78
CC
CC
00
00
ENDCHAR
STARTCHAR afii10026
ENCODING 233
SWIDTH 960 0
DWIDTH 7 0
BBX 7 14 0 -2
BITMAP
00
00
CC
CC
CC
DC
DC
EC
EC
CC
CC
CC
00
00
ENDCHAR
STARTCHAR afii10027
ENCODING 234
SWIDTH 960 0
DWIDTH 7 0
BBX 7 14 0 -2
BITMAP
78
30
CC
CC
CC
DC
DC
EC
EC
CC
CC
CC
00
00
ENDCHAR
STARTCHAR afii10028
ENCODING 235
SWIDTH 960 0
DWIDTH 7 0
BBX 7 14 0 -2
BITMAP
00
00
CC
CC
D8
F0
E0
F0
F0
D8
CC
CC
00
00
ENDCHAR
STARTCHAR afii10029
ENCODING 236
SWIDTH 960 0
DWIDTH 7 0
BBX 7 14 0 -2
BITMAP
00
00
3C
6C
6C
6C
6C
6C
6C
6C
EC
CC
00
00
ENDCHAR
STARTCHAR afii10030
ENCODING 237
SWIDTH 960 0
DWIDTH 7 0
BBX 7 14 0 -2
BITMAP
00
00
84
CC
FC
FC
FC
CC
CC
CC
CC
CC
00
00
ENDCHAR
STARTCHAR afii10031
ENCODING 238
SWIDTH 960 0
DWIDTH 7 0
BBX 7 14 0 -2
BITMAP
00
00
CC
CC
CC
CC
FC
CC
CC
CC
CC
CC
00
00
ENDCHAR
STARTCHAR afii10032
ENCODING 239
SWIDTH 960 0
DWIDTH 7 0
BBX 7 14 0 -2
BITMAP
00
00
78
CC
CC
CC
CC
CC
CC
CC
CC
78
00
00
ENDCHAR
STARTCHAR afii10033
ENCODING 240
SWIDTH 960 0
DWIDTH 7 0
BBX 7 14 0 -2
BITMAP
00
00
FC
CC
CC
CC
CC
CC
CC
CC
CC
CC
00
00
ENDCHAR
STARTCHAR afii10049
ENCODING 241
SWIDTH 960 0
DWIDTH 7 0
BBX 7 14 0 -2
BITMAP
00
00
7C
CC
CC
CC
CC
7C
3C
6C
CC
CC
00
00
ENDCHAR
STARTCHAR afii10034
ENCODING 242
SWIDTH 960 0
DWIDTH 7 0
BBX 7 14 0 -2
BITMAP
00
00
F8
CC
CC
CC
CC
F8
C0
C0
C0
C0
00
00
ENDCHAR
STARTCHAR afii10035
ENCODING 243
SWIDTH 960 0
DWIDTH 7 0
BBX 7 14 0 -2
BITMAP
00
00
78
CC
CC
C0
C0
C0
C0
CC
CC
78
00
00
ENDCHAR
STARTCHAR afii10036
ENCODING 244
SWIDTH 960 0
DWIDTH 7 0
BBX 7 14 0 -2
BITMAP
00
00
FC
30
30
30
30
30
30
30
30
30
00
00
ENDCHAR
STARTCHAR afii10037
ENCODING 245
SWIDTH 960 0
DWIDTH 7 0
BBX 7 14 0 -2
BITMAP
00
00
CC
CC
CC
CC
CC
7C
0C
0C
CC
78
00
00
ENDCHAR
STARTCHAR afii10024
ENCODING 246
SWIDTH 960 0
DWIDTH 7 0
BBX 7 14 0 -2
BITMAP
00
00
D6
D6
D6
54
38
54
D6
D6
D6
D6
00
00
ENDCHAR
STARTCHAR afii10019
ENCODING 247
SWIDTH 960 0
DWIDTH 7 0
BBX 7 14 0 -2
BITMAP
00
00
F8
CC
CC
CC
F8
CC
CC
CC
CC
F8
00
00
ENDCHAR
STARTCHAR afii10046
ENCODING 248
SWIDTH 960 0
DWIDTH 7 0
BBX 7 14 0 -2
BITMAP
00
00
C0
C0
C0
C0
F8
CC
CC
CC
CC
F8
00
00
ENDCHAR
STARTCHAR afii10045
ENCODING 249
SWIDTH 960 0
DWIDTH 7 0
BBX 7 14 0 -2
BITMAP
00
00
C6
C6
C6
C6
F6
DE
DE
DE
DE
F6
00
00
ENDCHAR
STARTCHAR afii10025
ENCODING 250
SWIDTH 960 0
DWIDTH 7 0
BBX 7 14 0 -2
BITMAP
00
00
70
D8
0C
18
30
18
0C
CC
D8
70
00
00
ENDCHAR
STARTCHAR afii10042
ENCODING 251
SWIDTH 960 0
DWIDTH 7 0
BBX 7 14 0 -2
BITMAP
00
00
D6
D6
D6
D6
D6
D6
D6
D6
D6
FE
00
00
ENDCHAR
STARTCHAR afii10047
ENCODING 252
SWIDTH 960 0
DWIDTH 7 0
BBX 7 14 0 -2
BITMAP
00
00
70
D8
0C
0C
3C
0C
0C
CC
D8
70
00
00
ENDCHAR
STARTCHAR afii10043
ENCODING 253
SWIDTH 960 0
DWIDTH 7 0
BBX 7 14 0 -2
BITMAP
00
00
D6
D6
D6
D6
D6
D6
D6
D6
D6
FE
06
06
ENDCHAR
STARTCHAR afii10041
ENCODING 254
SWIDTH 960 0
DWIDTH 7 0
BBX 7 14 0 -2
BITMAP
00
00
CC
CC
CC
CC
7C
0C
0C
0C
0C
0C
00
00
ENDCHAR
STARTCHAR afii10044
ENCODING 255
SWIDTH 960 0
DWIDTH 7 0
BBX 7 14 0 -2
BITMAP
00
00
F0
30
30
30
3C
36
36
36
36
3C
00
00
ENDCHAR
ENDFONT
